<svg clip-rule="evenodd" fill-rule="evenodd" stroke-linejoin="round" stroke-miterlimit="2" viewBox="0 0 510 510" xmlns="http://www.w3.org/2000/svg"><g><g><g><path d="m113.43 284.345c-7.122 5.68-16.283 9.098-26.272 9.098-22.661 0-41.058-17.591-41.058-39.258 0-21.668 18.397-39.259 41.058-39.259 3.948 0 7.768.534 11.383 1.531 8.327-15.783 24.209-26.457 42.416-26.457 15.845 0 29.929 8.085 38.806 20.585 4.5-3.599 9.596-5.629 14.993-5.629 18.232 0 33.035 23.175 33.035 51.721s-14.803 51.722-33.035 51.722c-11.49 0-21.618-9.205-27.537-23.157-7.576 5.189-16.591 8.201-26.262 8.201-10.216 0-19.699-3.36-27.527-9.098z" fill="#937661"/><path d="m240.34 281.118v98.335c0 19.068-7.575 37.356-21.058 50.839-13.484 13.484-31.771 21.059-50.84 21.059h-56.991c-19.069 0-37.356-7.575-50.84-21.059-13.483-13.483-21.058-31.771-21.058-50.839v-98.335z" fill="#f76c82"/><path d="m259.893 265.841c2.761 0 5 2.238 5 5v32.558c0 2.761-2.239 5-5 5-32.01 0-207.883 0-239.893 0-2.761 0-5-2.239-5-5 0-8.19 0-24.369 0-32.558 0-2.762 2.239-5 5-5z" fill="#eb5463"/><circle cx="72.29" cy="451.351" fill="#cad0d7" r="39.83"/><circle cx="72.29" cy="451.351" fill="#a9b0bb" r="11.458"/><circle cx="253.435" cy="469.356" fill="#cad0d7" r="25.644"/></g><g><path d="m450.151 29.425c1.869-1.438 2.474-3.989 1.45-6.113-1.025-2.124-3.398-3.239-5.687-2.671-97.952 24.645-178.867 72.364-243.152 142.6-1.61 1.776-1.73 4.444-.287 6.357s4.041 2.531 6.191 1.472c48.022-23.375 96.449-32.471 145.288-26.544 21.037-44.289 53.886-82.236 96.197-115.101z" fill="#e4e8eb"/><path d="m279.77 19.283c-14.562 8.626-19.375 27.424-10.749 41.986l168.96 285.252c4.142 6.993 10.893 12.055 18.767 14.071s16.226.821 23.219-3.321c14.563-8.626 19.376-27.424 10.75-41.986l-168.96-285.252c-8.626-14.563-27.424-19.376-41.987-10.75z" fill="#b9835e"/><path d="m272.77 86.033c-2.376 1.407-3.161 4.474-1.754 6.85 7.428 12.54 29.003 48.965 36.431 61.505 1.407 2.376 4.474 3.161 6.85 1.754 13.564-8.034 55.338-32.777 68.902-40.812 2.376-1.407 3.161-4.474 1.754-6.85-7.429-12.54-29.003-48.965-36.432-61.505-1.407-2.376-4.474-3.162-6.85-1.754-13.564 8.034-55.337 32.777-68.901 40.812z" fill="#a9b0bb"/></g></g><path d="m32.552 315.399h-17.553c-3.866 0-7-3.134-7-7v-42.558c0-3.866 3.134-7 7-7h24.342c-.16-1.531-.241-3.084-.241-4.656 0-25.442 21.449-46.258 48.057-46.258 2.696 0 5.34.214 7.914.626 10.047-15.472 26.884-25.552 45.885-25.552 15.836 0 30.162 6.996 40.316 18.286 4.241-2.179 8.782-3.331 13.484-3.331 9.221 0 17.869 4.451 24.782 12.387 9.118 10.468 15.252 27.292 15.252 46.335 0 .724-.009 1.446-.026 2.163h30.128c3.866 0 7 3.134 7 7v42.558c0 3.866-3.134 7-7 7h-17.553v64.054c0 19.575-7.274 38.4-20.326 52.861l9.139 9.349c5.013-3.137 10.938-4.95 17.282-4.95 18.017 0 32.644 14.627 32.644 32.644 0 18.016-14.627 32.644-32.644 32.644s-32.644-14.628-32.644-32.644c0-6.61 1.969-12.764 5.352-17.907l-9.398-9.613c-13.751 10.648-30.724 16.514-48.302 16.514h-49.843c-3.383 22.531-22.842 39.83-46.31 39.83-25.846 0-46.83-20.984-46.83-46.83 0-14.085 6.232-26.727 16.087-35.315-5.854-11.187-8.994-23.723-8.994-36.583zm225.34-42.558h-235.893v28.558h235.893zm-37.133-14c.021-.717.031-1.438.031-2.163 0-15.213-4.524-28.777-11.808-37.139-4.023-4.618-8.861-7.583-14.226-7.583-3.837 0-7.423 1.538-10.622 4.097-1.504 1.203-3.437 1.733-5.345 1.465-1.907-.268-3.62-1.309-4.735-2.879-7.578-10.673-19.57-17.638-33.098-17.638-15.574 0-29.102 9.222-36.225 22.723-1.534 2.907-4.883 4.356-8.052 3.482-3.024-.834-6.219-1.279-9.522-1.279-18.712 0-34.057 14.366-34.057 32.258 0 1.582.12 3.136.352 4.656zm-102.16 185.51h49.843c16.342 0 32.049-6.164 44.012-17.204.636-.588 1.262-1.189 1.877-1.804 12.171-12.171 19.008-28.678 19.008-45.89v-64.054h-186.787v64.054c0 10.175 2.39 20.104 6.858 29.035 5.776-2.55 12.163-3.967 18.879-3.967 23.468 0 42.927 17.299 46.31 39.83zm117.748 17.54c-1.001 2.286-1.557 4.811-1.557 7.466 0 10.289 8.354 18.644 18.644 18.644s18.644-8.355 18.644-18.644c0-10.29-8.354-18.644-18.644-18.644-2.504 0-4.893.494-7.076 1.391l12.082 12.359c2.7 2.763 2.65 7.199-.113 9.899-2.762 2.701-7.198 2.65-9.899-.112zm-131.228-10.54c0-18.119-14.71-32.83-32.83-32.83-18.119 0-32.83 14.711-32.83 32.83 0 18.12 14.711 32.83 32.83 32.83 18.12 0 32.83-14.71 32.83-32.83zm-32.83-18.458c10.187 0 18.458 8.271 18.458 18.458s-8.271 18.458-18.458 18.458-18.458-8.271-18.458-18.458 8.271-18.458 18.458-18.458zm0 14c-2.46 0-4.458 1.998-4.458 4.458 0 2.461 1.998 4.458 4.458 4.458 2.461 0 4.458-1.997 4.458-4.458 0-2.46-1.997-4.458-4.458-4.458zm225.243-295.506c-36.559 4.319-72.87 17.245-108.969 38.353-2.926 1.712-6.659 1.08-8.859-1.5-2.2-2.579-2.236-6.365-.084-8.985 25.696-31.294 54.283-58.675 85.784-82.11l-2.959-4.996c-1.971-3.327-.871-7.62 2.455-9.591l6.362-3.768-8.264-13.953c-10.596-17.889-4.684-40.98 13.205-51.576 17.888-10.596 40.98-4.684 51.576 13.205l8.264 13.953 6.362-3.769c3.327-1.97 7.62-.87 9.591 2.456l3.218 5.433c34.928-15.694 72.532-27.77 112.839-36.181 3.256-.679 6.54 1.026 7.858 4.08 1.317 3.055.303 6.614-2.426 8.516-33.908 23.628-62.574 50.061-84.915 79.899l4.953 8.362c1.97 3.327.871 7.62-2.455 9.591l-6.363 3.768 112.034 189.144c10.596 17.889 4.684 40.98-13.205 51.576-8.59 5.089-18.851 6.556-28.523 4.079-9.672-2.476-17.965-8.693-23.053-17.284l-112.034-189.144-6.362 3.769c-3.326 1.97-7.62.871-9.59-2.456zm-24.953-42.128c-20.437 15.307-39.604 32.335-57.509 51.069 24.797-11.095 49.699-18.47 74.701-22.045zm70.938-56.996-65.46 38.774 34.393 58.064 65.46-38.773zm-19.519-4.709-8.265-13.953c-6.655-11.236-21.159-14.95-32.396-8.295-11.236 6.656-14.949 21.16-8.294 32.396l8.265 13.953zm56.877 40.308c16.271-20.903 35.555-40.193 57.522-58.04-26.635 7.186-51.967 16.135-76.002 26.841zm-48.905 65.948 112.033 189.144c3.196 5.396 8.405 9.301 14.48 10.857 6.076 1.555 12.52.634 17.916-2.562 11.237-6.656 14.95-21.16 8.295-32.396l-112.034-189.144z"/></g></svg>