<svg id="Capa_1" enable-background="new 0 0 512 512" height="512" viewBox="0 0 512 512" width="512" xmlns="http://www.w3.org/2000/svg"><g><g><g><path d="m99.22 123.474c17.437 0 33.737 4.866 47.617 13.314 3.292-6.38 5.163-13.614 5.163-21.288 0-25.681-20.819-46.5-46.5-46.5s-46.5 20.819-46.5 46.5c0 5.597.99 10.962 2.803 15.932 11.426-5.112 24.089-7.958 37.417-7.958z" fill="#ffc344"/><path d="m99.22 123.474c8.5 0 16.727 1.161 24.538 3.325 2.042-3.288 3.242-7.152 3.242-11.299 0-11.855-9.645-21.5-21.5-21.5s-21.5 9.645-21.5 21.5c0 3.188.716 6.207 1.967 8.931 4.328-.627 8.752-.957 13.253-.957z" fill="#fff6ce"/><g><path d="m414.568 15.89c-45.225 0-81.887 36.662-81.887 81.887 0 7.94 1.152 15.607 3.26 22.867 25.68 13.783 47.608 33.646 63.861 57.666 4.792.873 9.722 1.353 14.766 1.353 45.225 0 81.887-36.662 81.887-81.887 0-45.224-36.662-81.886-81.887-81.886z" fill="#fff0ad"/><path d="m380.681 97.776c0-36.873 24.374-68.046 57.887-78.305-7.591-2.324-15.648-3.582-24-3.582-45.225 0-81.887 36.662-81.887 81.887 0 7.94 1.152 15.607 3.26 22.867 25.68 13.783 47.608 33.646 63.861 57.666 4.792.873 9.722 1.353 14.766 1.353 8.352 0 16.409-1.258 24-3.582-33.512-10.258-57.887-41.431-57.887-78.304z" fill="#ffe177"/></g><g><path d="m321.061 341.322c0-50.655 41.064-91.72 91.72-91.72 5.308 0 10.509.457 15.57 1.322-13.285-85.796-87.46-151.472-176.978-151.472-37.986 0-73.203 11.836-102.184 32.007-.671 1.835-1.465 3.61-2.352 5.329 26.443 16.094 44.103 45.187 44.103 78.406 0 50.655-41.064 91.72-91.72 91.72-8.748 0-17.21-1.226-25.224-3.514 12.098 87.152 86.895 154.253 177.376 154.253 42.291 0 81.151-14.667 111.792-39.18-25.33-16.323-42.103-44.777-42.103-77.151z" fill="#60b7ff"/><g fill="#26a6fe"><path d="m335.293 390.41c-19.693 40.987-49.965 67.243-83.921 67.243 21.047 0 41.241-3.642 60-10.311 14.448-8.56 27.47-22.129 38.32-39.448-5.487-5.201-10.329-11.073-14.399-17.484z"/><path d="m358.615 267.304c7.062-5.177 14.89-9.366 23.286-12.368-5.331-67.433-33.169-123.037-70.529-145.173-18.759-6.669-38.953-10.311-60-10.311 57.081.001 103.759 74.18 107.243 167.852z"/></g><g fill="#26a6fe"><path d="m106.472 306.629c-2.393.187-4.812.285-7.253.285-8.748 0-17.21-1.226-25.224-3.514 12.098 87.152 86.895 154.253 177.376 154.253 5.394 0 10.728-.253 16-.719-82.077-7.269-148.236-69.898-160.899-150.305z"/><path d="m149.188 131.459c-.671 1.835-1.465 3.61-2.352 5.329 5.148 3.133 9.961 6.761 14.377 10.815 28.344-26.447 65.274-43.81 106.158-47.431-5.272-.467-10.606-.719-16-.719-37.985 0-73.202 11.835-102.183 32.006z"/></g><path d="m321.061 341.322c0-30.393 14.787-57.328 37.555-74.018-3.484-93.672-50.162-167.852-107.243-167.852-31.704 0-60.197 22.887-79.866 59.283 12.175 15.566 19.434 35.164 19.434 56.458 0 34.24-18.765 64.094-46.57 79.85 4.996 91.183 50.99 162.61 107.002 162.61 33.956 0 64.228-26.256 83.921-67.243-9.012-14.194-14.233-31.031-14.233-49.088z" fill="#00f2a6"/><g><path d="m251.372 457.653c12.628 0 24.745-3.642 36-10.311 13.881-24.673 23.82-90.922 23.82-168.789s-9.939-144.117-23.82-168.789c-11.255-6.669-23.372-10.311-36-10.311 19.783 0 35.82 80.186 35.82 179.1s-16.037 179.1-35.82 179.1z" fill="#05e39c"/></g><g fill="#05e39c"><path d="m175.912 278.553c0-4.546.107-9.05.306-13.511-8.033 12.382-18.97 22.704-31.849 30.001 4.996 91.182 50.99 162.61 107.002 162.61 5.438 0 10.78-.68 16-1.979-51.758-12.878-91.459-87.269-91.459-177.121z"/><path d="m171.506 158.735c8.058 10.303 13.962 22.372 17.033 35.531 15.695-48.946 44.629-84.325 78.833-92.835-5.22-1.299-10.562-1.979-16-1.979-31.704.001-60.197 22.888-79.866 59.283z"/></g><g><ellipse cx="251.372" cy="278.553" fill="#60b7ff" rx="35.82" ry="179.1"/></g><g><path d="m247.552 278.553c0-70.16 8.07-130.886 19.82-160.27-4.816-12.043-10.249-18.83-16-18.83-19.783 0-35.82 80.186-35.82 179.1s16.037 179.1 35.82 179.1c5.751 0 11.184-6.787 16-18.83-11.75-29.384-19.82-90.111-19.82-160.27z" fill="#26a6fe"/></g></g><g><g><g><g><circle cx="412.78" cy="341.322" fill="#ffe177" r="91.72"/></g><g><path d="m361.061 341.322c0-43.785 30.683-80.399 71.72-89.526-6.439-1.432-13.13-2.193-20-2.193-50.655 0-91.72 41.064-91.72 91.72s41.064 91.72 91.72 91.72c6.87 0 13.561-.761 20-2.193-41.037-9.129-71.72-45.743-71.72-89.528z" fill="#ffd15b"/></g></g></g></g><g><g><g><g><g><circle cx="99.22" cy="215.194" fill="#ffe177" r="91.72"/></g></g></g></g><g><path d="m47.5 215.194c0-43.785 30.683-80.399 71.72-89.526-6.439-1.432-13.13-2.193-20-2.193-50.655 0-91.72 41.064-91.72 91.72s41.064 91.72 91.72 91.72c6.87 0 13.561-.761 20-2.193-41.037-9.129-71.72-45.743-71.72-89.528z" fill="#ffd15b"/></g></g></g><g><circle cx="219" cy="354" fill="#ffe177" r="32"/></g><g><path d="m213 354c0-13.043 7.807-24.255 19-29.239-3.973-1.769-8.37-2.761-13-2.761-17.673 0-32 14.327-32 32s14.327 32 32 32c4.63 0 9.027-.991 13-2.761-11.193-4.984-19-16.196-19-29.239z" fill="#ffd15b"/></g></g><g><path d="m450.913 43.509c-3.53-2.167-8.148-1.061-10.315 2.47l-26.029 42.418-26.029-42.418c-2.168-3.531-6.786-4.636-10.315-2.47-3.53 2.167-4.636 6.785-2.47 10.315l23.245 37.882h-13.206c-4.143 0-7.5 3.358-7.5 7.5s3.357 7.5 7.5 7.5h21.274v9.335h-21.274c-4.143 0-7.5 3.358-7.5 7.5s3.357 7.5 7.5 7.5h21.274v19.875c0 4.142 3.357 7.5 7.5 7.5s7.5-3.358 7.5-7.5v-19.875h21.273c4.143 0 7.5-3.358 7.5-7.5s-3.357-7.5-7.5-7.5h-21.273v-9.335h21.273c4.143 0 7.5-3.358 7.5-7.5s-3.357-7.5-7.5-7.5h-13.205l23.246-37.882c2.167-3.531 1.061-8.149-2.469-10.315z"/><path d="m400.916 309.274h23.729c5.381 0 9.758 4.377 9.758 9.757 0 4.142 3.357 7.5 7.5 7.5s7.5-3.358 7.5-7.5c0-13.651-11.106-24.757-24.758-24.757h-4.364v-8.319c0-4.142-3.357-7.5-7.5-7.5s-7.5 3.358-7.5 7.5v8.319h-4.364c-13.651 0-24.758 11.106-24.758 24.757v5.034c0 13.651 11.106 24.757 24.758 24.757h23.729c5.381 0 9.758 4.377 9.758 9.757v5.033c0 5.38-4.377 9.757-9.758 9.757h-23.729c-5.381 0-9.758-4.377-9.758-9.757 0-4.142-3.357-7.5-7.5-7.5s-7.5 3.358-7.5 7.5c0 13.651 11.106 24.757 24.758 24.757h4.364v8.319c0 4.142 3.357 7.5 7.5 7.5s7.5-3.358 7.5-7.5v-8.319h4.364c13.651 0 24.758-11.106 24.758-24.757v-5.033c0-13.651-11.106-24.757-24.758-24.757h-23.729c-5.381 0-9.758-4.377-9.758-9.757v-5.034c0-5.38 4.377-9.757 9.758-9.757z"/><path d="m177.048 475.067c-20.853-7.895-40.245-19.029-57.639-33.092-3.223-2.604-7.944-2.105-10.548 1.117-2.604 3.221-2.104 7.943 1.116 10.547 18.635 15.067 39.414 26.996 61.76 35.457.874.331 1.771.488 2.654.488 3.027 0 5.88-1.847 7.015-4.846 1.467-3.875-.484-8.204-4.358-9.671z"/><path d="m475.98 264.907c-1.821-30.323-9.682-59.651-23-86.451 6.374-3.031 12.407-6.802 17.929-11.293 15.623-12.708 26.605-30.481 30.924-50.046.894-4.045-1.662-8.047-5.707-8.94-4.042-.894-8.047 1.663-8.939 5.707-3.593 16.273-12.734 31.062-25.742 41.643-13.19 10.729-29.838 16.637-46.876 16.637-3.574 0-7.086-.263-10.525-.755-16.091-22.865-37.178-41.969-61.664-55.71-1.428-5.743-2.197-11.743-2.197-17.922 0-41.017 33.37-74.387 74.387-74.387 34.826 0 65.406 24.681 72.712 58.686.871 4.05 4.867 6.626 8.908 5.757 4.05-.87 6.628-4.858 5.758-8.908-4.229-19.68-15.184-37.573-30.847-50.382-15.893-12.997-35.969-20.153-56.533-20.153-38.765 0-71.84 24.807-84.198 59.377-19.676-7.372-40.447-12.009-61.804-13.623-4.134-.319-7.731 2.783-8.044 6.913-.312 4.13 2.783 7.732 6.913 8.044 20.438 1.545 40.308 6.044 59.086 13.233-.877 5.018-1.339 10.177-1.339 15.443 0 3.256.179 6.471.521 9.638-22.787-9.937-47.924-15.461-74.331-15.461-33.386 0-64.746 8.823-91.888 24.246.003-.234.016-.465.016-.699 0-8.308-1.89-16.182-5.256-23.22 24.458-12.772 51.368-20.689 79.381-23.031 4.128-.345 7.194-3.972 6.849-8.099-.345-4.129-3.993-7.189-8.099-6.849-30.561 2.556-59.901 11.291-86.484 25.413-9.9-11.163-24.334-18.215-40.391-18.215-6.851 0-13.549 1.28-19.909 3.806-3.85 1.528-5.731 5.888-4.203 9.738s5.887 5.73 9.738 4.203c4.591-1.823 9.428-2.747 14.374-2.747 21.505 0 39 17.495 39 39 0 3.701-.536 7.276-1.506 10.67-3.011-1.487-6.106-2.827-9.279-4.007.507-2.141.785-4.369.785-6.663 0-15.991-13.01-29-29-29s-29 13.009-29 29c0 1.035.061 2.055.168 3.061-3.305.771-6.546 1.711-9.716 2.804-.291-1.914-.451-3.871-.451-5.865 0-5.539 1.147-10.903 3.411-15.945 1.695-3.779.008-8.217-3.771-9.914-3.774-1.694-8.217-.008-9.914 3.771-3.137 6.987-4.727 14.418-4.727 22.088 0 4.123.476 8.136 1.359 11.995-31.413 16.673-52.859 49.726-52.859 87.699 0 25.937 10.007 49.579 26.359 67.274.936 54.093 21.218 105.883 57.371 146.225 1.481 1.653 3.529 2.495 5.588 2.495 1.781 0 3.571-.632 5.003-1.915 3.084-2.765 3.344-7.506.579-10.591-30.601-34.146-49.01-77.084-52.825-122.441 7.68 5.43 16.15 9.813 25.218 12.902 14.639 88.389 91.604 156.01 184.078 156.01 42.116 0 81.017-14.027 112.28-37.653 7.7 4.407 16.048 7.8 24.856 10.024-36.825 31.812-84.769 51.086-137.136 51.086-14.062 0-28.143-1.406-41.85-4.178-4.052-.823-8.017 1.804-8.838 5.864-.82 4.06 1.805 8.017 5.865 8.838 14.683 2.97 29.764 4.476 44.822 4.476 58.82 0 114.186-22.424 156.364-63.209 1.672.084 3.352.14 5.044.14 19.663 0 38.675-5.747 54.98-16.621 3.446-2.298 4.377-6.955 2.079-10.401-2.297-3.446-6.956-4.376-10.401-2.079-13.833 9.224-29.967 14.1-46.658 14.1-46.438 0-84.22-37.781-84.22-84.22s37.781-84.22 84.22-84.22 84.222 37.783 84.222 84.222c0 17.064-5.078 33.498-14.687 47.525-2.341 3.417-1.468 8.085 1.949 10.426 3.418 2.342 8.086 1.468 10.426-1.949 11.326-16.534 17.312-35.899 17.312-56.002 0-30.713-14.035-58.202-36.02-76.415zm-155.053-109.138c5.399 8.998 10.126 18.829 14.147 29.316h-45.578c-1.508-12.447-3.327-24.079-5.44-34.646-3.356-16.775-7.306-30.105-11.745-39.648 18.109 6.718 34.897 22.113 48.616 44.978zm-97.129 159.033c-.389-9.399-.633-19.002-.713-28.749h56.575c-.207 24.974-1.443 49.057-3.607 70.968h-17.68c.076-.998.127-2.004.127-3.021 0-20.155-15.178-36.822-34.702-39.198zm-44.171 42.219h-17.093c-5.459-18.007-8.984-37.558-10.403-57.931 5.944-3.762 11.46-8.138 16.464-13.038h39.489c.082 10.102.339 20.047.747 29.781-16.867 4.499-29.331 19.902-29.331 38.167 0 1.017.051 2.023.127 3.021zm17.66-156.937h14.334c-2.123 21.997-3.334 46.043-3.536 70.968h-26.907c10.886-15.921 17.261-35.159 17.261-55.859 0-5.136-.396-10.181-1.152-15.109zm21.713 129.416c13.51 0 24.5 10.991 24.5 24.5s-10.99 24.5-24.5 24.5-24.5-10.991-24.5-24.5 10.99-24.5 24.5-24.5zm4.085-58.447c.207-24.974 1.443-49.057 3.607-70.968h49.361c2.164 21.911 3.4 45.995 3.607 70.968zm28.264-164.1h.009c.209.056 9.667 3.637 18.328 48.152 1.795 9.224 3.365 19.277 4.697 29.98h-46.022c1.332-10.703 2.902-20.756 4.697-29.98 8.653-44.475 18.102-48.089 18.291-48.152zm-20.916 3.838c-4.438 9.543-8.389 22.872-11.745 39.648-2.113 10.566-3.933 22.198-5.441 34.646h-19.479c-3.091-9.681-7.635-18.717-13.368-26.86.472-.819.933-1.651 1.417-2.456 13.719-22.865 30.507-38.26 48.616-44.978zm-37.011 6.245c-8.374 7.906-16.164 17.59-23.192 28.946-3.917-4.017-8.18-7.69-12.723-11.002 11.143-7.309 23.182-13.359 35.915-17.944zm-87.922-15.536c7.72 0 14 6.28 14 14 0 .858-.085 1.695-.234 2.51-6.476-1.334-13.181-2.036-20.046-2.036-2.587 0-5.151.1-7.689.296-.014-.256-.031-.511-.031-.77 0-7.72 6.28-14 14-14zm-90.5 113.694c0-46.439 37.781-84.22 84.22-84.22s84.22 37.781 84.22 84.22-37.781 84.22-84.22 84.22-84.22-37.781-84.22-84.22zm68.286 97.934c5.189.841 10.51 1.285 15.934 1.285 13.64 0 26.645-2.768 38.485-7.769 1.606 17.536 4.705 34.471 9.213 50.377h-48.116c-7.058-13.67-12.333-28.404-15.516-43.893zm24.24 58.893h44.171c4.73 13.331 10.503 25.774 17.258 37.034 7.353 12.255 15.576 22.638 24.457 31.017-35.492-12.776-65.598-36.932-85.886-68.051zm74.291 29.316c-5.399-8.998-10.126-18.829-14.147-29.316h16.199c6.17 11.98 18.282 20.411 32.419 21.375.754 4.58 1.551 9.02 2.401 13.271 3.356 16.775 7.306 30.105 11.745 39.648-18.11-6.719-34.898-22.113-48.617-44.978zm69.578 48.816c-.003 0-.006 0-.009 0-.207-.056-9.666-3.632-18.329-48.152-.655-3.366-1.276-6.856-1.87-10.434 9.97-3.243 18.207-10.349 22.944-19.546h20.252c-1.332 10.703-2.902 20.756-4.697 29.98-8.654 44.481-18.104 48.09-18.291 48.152zm20.916-3.838c4.438-9.543 8.389-22.872 11.745-39.648 2.113-10.566 3.933-22.199 5.441-34.646h28.931c2.14 6.562 4.941 12.828 8.334 18.712-1.85 3.644-3.787 7.192-5.835 10.605-13.719 22.864-30.507 38.258-48.616 44.977zm61.478-37.26c.885-1.474 1.736-2.988 2.585-4.504 4.239 5.114 8.984 9.793 14.152 13.969-12.583 8.941-26.418 16.227-41.186 21.545 8.878-8.378 17.098-18.759 24.449-31.01zm-20.228-67.733c0 5.341.43 10.584 1.247 15.699h-23.684c2.123-21.997 3.334-46.043 3.536-70.968h35.76c-10.642 15.805-16.859 34.824-16.859 55.269zm29.24-70.269h-48.142c-.203-24.926-1.414-48.971-3.536-70.968h49.086c5.973 19.699 9.623 41.25 10.741 63.699-2.847 2.274-5.569 4.7-8.149 7.269zm8.246-85.969c-4.73-13.331-10.503-25.774-17.258-37.033-7.352-12.253-15.573-22.634-24.452-31.013 35.485 12.776 65.579 36.932 85.865 68.046zm61.733 57.019c-17.164 0-33.323 4.383-47.419 12.085-1.492-18.865-4.708-37.073-9.534-54.103h48.117c6.804 13.179 11.952 27.346 15.164 42.226-2.094-.133-4.202-.208-6.328-.208zm22.074 2.478c-3.788-20.505-10.942-39.844-20.86-57.426.191.001.382.008.574.008 8.252 0 16.423-1.173 24.283-3.395 11.098 21.924 18.276 45.689 21.142 70.332-7.813-4.246-16.244-7.491-25.139-9.519z"/><path d="m136.938 252.911c2.929-2.929 2.929-7.677 0-10.606s-7.677-2.93-10.607 0c-14.946 14.949-39.272 14.948-54.221 0-2.14-2.14-3.963-4.477-5.491-6.947h39.715c4.143 0 7.5-3.358 7.5-7.5s-3.357-7.5-7.5-7.5h-45.084c-.361-2.677-.436-5.384-.233-8.074h45.316c4.143 0 7.5-3.358 7.5-7.5s-3.357-7.5-7.5-7.5h-41.015c1.747-3.311 4.009-6.418 6.791-9.2 14.947-14.948 39.273-14.948 54.221 0 2.93 2.93 7.678 2.929 10.607 0s2.929-7.678 0-10.606c-20.799-20.797-54.637-20.797-75.436 0-5.781 5.781-9.949 12.571-12.516 19.807h-3.085c-4.143 0-7.5 3.358-7.5 7.5s3.357 7.5 7.5 7.5h.089c-.146 2.691-.095 5.39.164 8.074h-.252c-4.143 0-7.5 3.358-7.5 7.5s3.357 7.5 7.5 7.5h3.938c2.6 6.391 6.486 12.376 11.663 17.553 10.399 10.398 24.059 15.598 37.718 15.598s27.318-5.201 37.718-15.599z"/></g></g></svg>