<?xml version="1.0"?>
<svg xmlns="http://www.w3.org/2000/svg" id="filled_outline" data-name="filled outline" viewBox="0 0 512 512" width="512" height="512"><rect x="296" y="24" width="192" height="128" style="fill:#02c26a"/><path d="M448,128v0a16,16,0,0,1,16-16h0V64h0a16,16,0,0,1-16-16v0H336v0a16,16,0,0,1-16,16h0v48h0a16,16,0,0,1,16,16v0Z" style="fill:#3cde8d"/><circle cx="392" cy="88" r="16" style="fill:#08d175"/><rect x="24" y="360" width="192" height="128" style="fill:#02c26a"/><path d="M176,464v0a16,16,0,0,1,16-16h0V400h0a16,16,0,0,1-16-16v0H64v0a16,16,0,0,1-16,16h0v48h0a16,16,0,0,1,16,16v0Z" style="fill:#3cde8d"/><circle cx="120" cy="424" r="16" style="fill:#08d175"/><circle cx="256" cy="256" r="144" style="fill:#ffc431"/><path d="M24,496H216a8.00039,8.00039,0,0,0,8-8V416H208v64H32V368h96V352H24a8.00039,8.00039,0,0,0-8,8V488A8.00039,8.00039,0,0,0,24,496Z"/><path d="M56,384a8.00917,8.00917,0,0,1-8,8,8.00039,8.00039,0,0,0-8,8v48a8.00039,8.00039,0,0,0,8,8,8.00917,8.00917,0,0,1,8,8,8.00039,8.00039,0,0,0,8,8H176a8.00039,8.00039,0,0,0,8-8,8.00917,8.00917,0,0,1,8-8,8.00039,8.00039,0,0,0,8-8V408H184v33.37109A24.11694,24.11694,0,0,0,169.37109,456H70.62891A24.11694,24.11694,0,0,0,56,441.37109V406.62891A24.11694,24.11694,0,0,0,70.62891,392H152V376H64A8.00039,8.00039,0,0,0,56,384Z"/><path d="M120,400a24.0384,24.0384,0,0,0-22.62378,16H80v16H97.37622a23.99486,23.99486,0,0,0,45.24756,0H160V416H142.62378A24.0384,24.0384,0,0,0,120,400Zm0,32a8,8,0,1,1,8-8A8.00917,8.00917,0,0,1,120,432Z"/><path d="M488,16H296a8.00039,8.00039,0,0,0-8,8V96h16V32H480V144H384v16H488a8.00039,8.00039,0,0,0,8-8V24A8.00039,8.00039,0,0,0,488,16Z"/><path d="M456,128a8.00917,8.00917,0,0,1,8-8,8.00039,8.00039,0,0,0,8-8V64a8.00039,8.00039,0,0,0-8-8,8.00917,8.00917,0,0,1-8-8,8.00039,8.00039,0,0,0-8-8H336a8.00039,8.00039,0,0,0-8,8,8.00917,8.00917,0,0,1-8,8,8.00039,8.00039,0,0,0-8,8v40h16V70.62891A24.11694,24.11694,0,0,0,342.62891,56h98.74218A24.11694,24.11694,0,0,0,456,70.62891v34.74218A24.11694,24.11694,0,0,0,441.37109,120H360v16h88A8.00039,8.00039,0,0,0,456,128Z"/><path d="M392,112a24.03919,24.03919,0,0,0,22.624-16H432V80H414.624a23.9952,23.9952,0,0,0-45.248,0H352V96h17.376A24.03919,24.03919,0,0,0,392,112Zm0-32a8,8,0,1,1-8,8A8.00917,8.00917,0,0,1,392,80Z"/><path d="M104,256c0,83.81348,68.18652,152,152,152s152-68.18652,152-152S339.81348,104,256,104,104,172.18652,104,256Zm287.7583-8H319.91162a348.434,348.434,0,0,0-4.84521-51.8335,151.14891,151.14891,0,0,0,44.167-28.6018A135.40444,135.40444,0,0,1,391.7583,248Zm-32.52539,96.43579a151.14314,151.14314,0,0,0-44.1665-28.60229A348.434,348.434,0,0,0,319.91162,264H391.7583A135.40509,135.40509,0,0,1,359.23291,344.43579ZM120.2417,264h71.84668a348.473,348.473,0,0,0,4.845,51.83374,151.13972,151.13972,0,0,0-44.1665,28.60181A135.40473,135.40473,0,0,1,120.2417,264Zm32.52539-96.43579a151.14279,151.14279,0,0,0,44.16626,28.602A348.473,348.473,0,0,0,192.08838,248H120.2417A135.40353,135.40353,0,0,1,152.76709,167.56421ZM200.166,180.10986a135.36181,135.36181,0,0,1-36.28492-24.064,135.86356,135.86356,0,0,1,59.52246-32.0874,118.69546,118.69546,0,0,0-14.45727,27.31884A214.96869,214.96869,0,0,0,200.166,180.10986ZM208.08691,248a334.13464,334.13464,0,0,1,4.10889-46.36377,153.945,153.945,0,0,0,87.6084.00024A334.13118,334.13118,0,0,1,303.91309,248Zm95.82618,16a334.13118,334.13118,0,0,1-4.10889,46.36353,153.94416,153.94416,0,0,0-87.60816.00024A334.09616,334.09616,0,0,1,208.08691,264ZM200.166,331.89014a214.96869,214.96869,0,0,0,8.78027,28.83252,118.69546,118.69546,0,0,0,14.45727,27.31884,135.85755,135.85755,0,0,1-59.5227-32.08789A135.36678,135.36678,0,0,1,200.166,331.89014Zm15.073-5.72486a137.82228,137.82228,0,0,1,81.52173.00025C287.61426,366.88135,271.22461,392,256,392,240.77563,392,224.38574,366.88135,215.239,326.16528Zm87.8147,34.55738a215.00648,215.00648,0,0,0,8.78027-28.832,135.36459,135.36459,0,0,1,36.28467,24.06348,135.86177,135.86177,0,0,1-59.522,32.0874A118.71432,118.71432,0,0,0,303.05371,360.72266Zm8.78027-180.6128a214.93232,214.93232,0,0,0-8.78027-28.83252,118.71432,118.71432,0,0,0-14.457-27.31884,135.85671,135.85671,0,0,1,59.52246,32.08789A135.35925,135.35925,0,0,1,311.834,180.10986Zm-15.07324,5.72486a137.82495,137.82495,0,0,1-81.52173,0C224.38574,145.11865,240.77563,120,256,120,271.22461,120,287.61426,145.11865,296.76074,185.83472Z"/><path d="M56,240v64l-9.59961-12.7998-12.80078,9.5996,24,32a8.00048,8.00048,0,0,0,12.80078,0l24-32-12.80078-9.5996L72,304V240c0-92.63574,75.36426-168,168-168h32V56H240C138.542,56,56,138.542,56,240Z"/><path d="M272,440H240v16h32c101.458,0,184-82.542,184-184V208l9.59961,12.7998,12.80078-9.5996-24-32a8.00048,8.00048,0,0,0-12.80078,0l-24,32,12.80078,9.5996L440,208v64C440,364.63574,364.63574,440,272,440Z"/></svg>
